<?xml version="1.0" encoding="utf-8"?>
<!-- Generator: Adobe Illustrator 21.0.0, SVG Export Plug-In . SVG Version: 6.00 Build 0)  -->
<svg version="1.1" id="Layer_1" xmlns="http://www.w3.org/2000/svg" xmlns:xlink="http://www.w3.org/1999/xlink" x="0px" y="0px"
	 viewBox="0 0 199.9 200.1" style="enable-background:new 0 0 199.9 200.1;" xml:space="preserve">
<style type="text/css">
	.st0{fill:#FFFFFF;}
	.st1{fill:#2ECB70;}
	.st2{fill:#2EAAE2;}
	.st3{fill:#FFC600;}
	.st4{fill:#313E48;}
</style>
<g>
	<path class="st0" d="M184,41.3V159c0,14-11.3,25.2-25.2,25.3H41.1c-13.9,0-25.2-11.3-25.2-25.3V41.3c0-14,11.3-25.3,25.2-25.3
		h117.8C172.7,16.1,184,27.3,184,41.3z"/>
	<g>
		<path class="st1" d="M199.9,50.3v106.1c-0.3,5.8-1.4,11.6-3.8,17c-2.4,5.5-5.5,10.1-9.2,13.8l-18.7-18.6
			c4.4-4.2,6.9-10.1,6.8-16.2V47.6c0-6-2.4-11.8-6.7-16L187,12.9c6.5,6.3,10.5,14.7,11.9,25C199.5,42,199.8,46.2,199.9,50.3z"/>
		<path class="st2" d="M186.9,187.2c-6.3,6.3-14.4,10.2-24.2,11.8c-8.8,1.4-17.7,1-26.5,1c-12.2,0-24.3,0-36.5,0
			c0,0-34.2,0-51.3-0.1c-6.4,0-12.7-0.6-18.8-2.8C23,194.7,17.4,191.3,13,187l18.7-18.7c4.2,4.2,9.9,6.5,15.9,6.5h105.1
			c5.8,0,11.5-2.3,15.7-6.3L186.9,187.2z"/>
		<path class="st3" d="M187,13l-18.6,18.6c-4.2-4.2-9.9-6.5-15.8-6.5H47.4c-12.4,0-22.5,10.1-22.5,22.5v104.8c0,6,2.4,11.7,6.6,16
			L12.9,187C6.5,180.8,2.6,172.6,1,162.6c-0.9-5.4-1-11-1-16.6c-0.1-32.2,0-64.3,0.1-96.5c0-7.7,0.7-15.4,3.9-22.7
			C10.5,11.7,22.1,3,38.3,0.9C43,0.3,47.8,0.1,52.6,0h101.2c5.6,0.2,11.2,0.8,16.6,2.8C177,5.3,182.6,8.6,187,13z"/>
	</g>
	<g>
		<path class="st0" d="M175,47.6v105c0,12.5-10.1,22.5-22.5,22.6H47.4c-12.4,0-22.5-10.1-22.5-22.6v-105C24.9,35.1,35,25,47.4,25
			h105.1C164.9,25.1,175,35.1,175,47.6z"/>
		<polygon class="st4" points="65.7,149.9 134.2,149.9 134.2,129.4 90.8,129.4 90.8,110.1 127.6,110.1 127.6,89.1 90.8,89.1 
			90.8,70.7 134.2,70.7 134.2,50.3 65.7,50.3 		"/>
	</g>
</g>
</svg>
